<svg  viewBox="0 0 800 160" fill="none" xmlns="http://www.w3.org/2000/svg">
<g filter="url(#filter0_b_2_15)">
<rect width="158.027" height="31.6447" rx="15.8223" transform="matrix(0.494407 -0.869231 0.86276 0.505614 0 138.362)" fill="#00A6FB"/>
</g>
<g filter="url(#filter1_b_2_15)">
<rect width="159.41" height="31.6447" rx="15.8223" transform="matrix(0.494407 0.869231 -0.86276 0.505614 90.3524 0)" fill="#0c0c0d"/>
</g>
<g filter="url(#filter2_b_2_15)">
<rect x="6.89616" y="117" width="156.642" height="32" rx="16" fill="#006494"/>
</g>
<g filter="url(#filter3_b_2_15)">
<path d="M13.6509 146.426C6.11171 142.007 3.50233 132.268 7.82267 124.672L23.7027 96.7533C28.023 89.1575 37.6371 86.5817 45.1762 91V91C52.7154 95.4183 55.3248 105.158 51.0044 112.753L35.1244 140.672C30.8041 148.268 21.19 150.844 13.6509 146.426V146.426Z" fill="#00A6FB"/>
</g>
<path d="M299.625 64.5909V55.4545H338.966V64.5909H324.852V102H313.761V64.5909H299.625ZM349.551 102.591C347.324 102.591 345.347 102.22 343.619 101.477C341.907 100.72 340.551 99.5833 339.551 98.0682C338.566 96.5379 338.074 94.6212 338.074 92.3182C338.074 90.3788 338.415 88.7424 339.097 87.4091C339.778 86.0758 340.718 84.9924 341.915 84.1591C343.112 83.3258 344.491 82.697 346.051 82.2727C347.612 81.8333 349.278 81.5379 351.051 81.3864C353.036 81.2045 354.634 81.0152 355.847 80.8182C357.059 80.6061 357.938 80.3106 358.483 79.9318C359.044 79.5379 359.324 78.9848 359.324 78.2727V78.1591C359.324 76.9924 358.922 76.0909 358.119 75.4545C357.316 74.8182 356.233 74.5 354.869 74.5C353.4 74.5 352.218 74.8182 351.324 75.4545C350.43 76.0909 349.862 76.9697 349.619 78.0909L339.369 77.7273C339.672 75.6061 340.453 73.7121 341.71 72.0455C342.983 70.3636 344.725 69.0455 346.938 68.0909C349.165 67.1212 351.839 66.6364 354.96 66.6364C357.188 66.6364 359.241 66.9015 361.119 67.4318C362.998 67.947 364.634 68.7045 366.028 69.7045C367.422 70.6894 368.498 71.9015 369.256 73.3409C370.028 74.7803 370.415 76.4242 370.415 78.2727V102H359.96V97.1364H359.688C359.066 98.3182 358.271 99.3182 357.301 100.136C356.347 100.955 355.218 101.568 353.915 101.977C352.627 102.386 351.172 102.591 349.551 102.591ZM352.983 95.3182C354.18 95.3182 355.256 95.0758 356.21 94.5909C357.18 94.1061 357.953 93.4394 358.528 92.5909C359.104 91.7273 359.392 90.7273 359.392 89.5909V86.2727C359.074 86.4394 358.688 86.5909 358.233 86.7273C357.794 86.8636 357.309 86.9924 356.778 87.1136C356.248 87.2348 355.703 87.3409 355.142 87.4318C354.581 87.5227 354.044 87.6061 353.528 87.6818C352.483 87.8485 351.589 88.1061 350.847 88.4545C350.119 88.803 349.559 89.2576 349.165 89.8182C348.786 90.3636 348.597 91.0152 348.597 91.7727C348.597 92.9242 349.006 93.803 349.824 94.4091C350.657 95.0152 351.71 95.3182 352.983 95.3182ZM407.688 77.75L397.483 78.0227C397.377 77.2955 397.089 76.6515 396.619 76.0909C396.15 75.5152 395.536 75.0682 394.778 74.75C394.036 74.4167 393.172 74.25 392.188 74.25C390.9 74.25 389.801 74.5076 388.892 75.0227C387.998 75.5379 387.559 76.2348 387.574 77.1136C387.559 77.7955 387.831 78.3864 388.392 78.8864C388.968 79.3864 389.991 79.7879 391.46 80.0909L398.188 81.3636C401.672 82.0303 404.263 83.1364 405.96 84.6818C407.672 86.2273 408.536 88.2727 408.551 90.8182C408.536 93.2121 407.824 95.2955 406.415 97.0682C405.021 98.8409 403.112 100.22 400.688 101.205C398.263 102.174 395.491 102.659 392.369 102.659C387.384 102.659 383.453 101.636 380.574 99.5909C377.71 97.5303 376.074 94.7727 375.665 91.3182L386.642 91.0455C386.884 92.3182 387.513 93.2879 388.528 93.9545C389.544 94.6212 390.839 94.9545 392.415 94.9545C393.839 94.9545 394.998 94.6894 395.892 94.1591C396.786 93.6288 397.241 92.9242 397.256 92.0455C397.241 91.2576 396.892 90.6288 396.21 90.1591C395.528 89.6742 394.46 89.2955 393.006 89.0227L386.915 87.8636C383.415 87.2273 380.809 86.053 379.097 84.3409C377.384 82.6136 376.536 80.4167 376.551 77.75C376.536 75.4167 377.157 73.4242 378.415 71.7727C379.672 70.1061 381.46 68.8333 383.778 67.9545C386.097 67.0758 388.831 66.6364 391.983 66.6364C396.71 66.6364 400.438 67.6288 403.165 69.6136C405.892 71.5833 407.4 74.2955 407.688 77.75ZM424.045 92.8409L424.091 79.5909H425.636L435.455 67.0909H448.045L433.455 85H430.523L424.045 92.8409ZM414.023 102V55.4545H425.136V102H414.023ZM435.705 102L426.568 87.5L433.886 79.6136L448.545 102H435.705Z" fill="#e6d5ec"/>
<path d="M452.023 55.4545H465.955L477.773 84.2727H478.318L490.136 55.4545H504.068V102H493.114V73.4091H492.727L481.545 101.705H474.545L463.364 73.25H462.977V102H452.023V55.4545ZM520.926 102.591C518.699 102.591 516.722 102.22 514.994 101.477C513.282 100.72 511.926 99.5833 510.926 98.0682C509.941 96.5379 509.449 94.6212 509.449 92.3182C509.449 90.3788 509.79 88.7424 510.472 87.4091C511.153 86.0758 512.093 84.9924 513.29 84.1591C514.487 83.3258 515.866 82.697 517.426 82.2727C518.987 81.8333 520.653 81.5379 522.426 81.3864C524.411 81.2045 526.009 81.0152 527.222 80.8182C528.434 80.6061 529.313 80.3106 529.858 79.9318C530.419 79.5379 530.699 78.9848 530.699 78.2727V78.1591C530.699 76.9924 530.297 76.0909 529.494 75.4545C528.691 74.8182 527.608 74.5 526.244 74.5C524.775 74.5 523.593 74.8182 522.699 75.4545C521.805 76.0909 521.237 76.9697 520.994 78.0909L510.744 77.7273C511.047 75.6061 511.828 73.7121 513.085 72.0455C514.358 70.3636 516.1 69.0455 518.312 68.0909C520.54 67.1212 523.214 66.6364 526.335 66.6364C528.563 66.6364 530.616 66.9015 532.494 67.4318C534.373 67.947 536.009 68.7045 537.403 69.7045C538.797 70.6894 539.873 71.9015 540.631 73.3409C541.403 74.7803 541.79 76.4242 541.79 78.2727V102H531.335V97.1364H531.062C530.441 98.3182 529.646 99.3182 528.676 100.136C527.722 100.955 526.593 101.568 525.29 101.977C524.002 102.386 522.547 102.591 520.926 102.591ZM524.358 95.3182C525.555 95.3182 526.631 95.0758 527.585 94.5909C528.555 94.1061 529.328 93.4394 529.903 92.5909C530.479 91.7273 530.767 90.7273 530.767 89.5909V86.2727C530.449 86.4394 530.063 86.5909 529.608 86.7273C529.169 86.8636 528.684 86.9924 528.153 87.1136C527.623 87.2348 527.078 87.3409 526.517 87.4318C525.956 87.5227 525.419 87.6061 524.903 87.6818C523.858 87.8485 522.964 88.1061 522.222 88.4545C521.494 88.803 520.934 89.2576 520.54 89.8182C520.161 90.3636 519.972 91.0152 519.972 91.7727C519.972 92.9242 520.381 93.803 521.199 94.4091C522.032 95.0152 523.085 95.3182 524.358 95.3182ZM579.062 77.75L568.858 78.0227C568.752 77.2955 568.464 76.6515 567.994 76.0909C567.525 75.5152 566.911 75.0682 566.153 74.75C565.411 74.4167 564.547 74.25 563.562 74.25C562.275 74.25 561.176 74.5076 560.267 75.0227C559.373 75.5379 558.934 76.2348 558.949 77.1136C558.934 77.7955 559.206 78.3864 559.767 78.8864C560.343 79.3864 561.366 79.7879 562.835 80.0909L569.562 81.3636C573.047 82.0303 575.638 83.1364 577.335 84.6818C579.047 86.2273 579.911 88.2727 579.926 90.8182C579.911 93.2121 579.199 95.2955 577.79 97.0682C576.396 98.8409 574.487 100.22 572.062 101.205C569.638 102.174 566.866 102.659 563.744 102.659C558.759 102.659 554.828 101.636 551.949 99.5909C549.085 97.5303 547.449 94.7727 547.04 91.3182L558.017 91.0455C558.259 92.3182 558.888 93.2879 559.903 93.9545C560.919 94.6212 562.214 94.9545 563.79 94.9545C565.214 94.9545 566.373 94.6894 567.267 94.1591C568.161 93.6288 568.616 92.9242 568.631 92.0455C568.616 91.2576 568.267 90.6288 567.585 90.1591C566.903 89.6742 565.835 89.2955 564.381 89.0227L558.29 87.8636C554.79 87.2273 552.184 86.053 550.472 84.3409C548.759 82.6136 547.911 80.4167 547.926 77.75C547.911 75.4167 548.532 73.4242 549.79 71.7727C551.047 70.1061 552.835 68.8333 555.153 67.9545C557.472 67.0758 560.206 66.6364 563.358 66.6364C568.085 66.6364 571.813 67.6288 574.54 69.6136C577.267 71.5833 578.775 74.2955 579.062 77.75ZM605.102 67.0909V75.2727H583.08V67.0909H605.102ZM587.693 58.7273H598.807V91.0227C598.807 91.7045 598.913 92.2576 599.125 92.6818C599.352 93.0909 599.678 93.3864 600.102 93.5682C600.527 93.7348 601.034 93.8182 601.625 93.8182C602.049 93.8182 602.496 93.7803 602.966 93.7045C603.451 93.6136 603.814 93.5379 604.057 93.4773L605.739 101.5C605.208 101.652 604.458 101.841 603.489 102.068C602.534 102.295 601.39 102.439 600.057 102.5C597.451 102.621 595.216 102.318 593.352 101.591C591.504 100.848 590.087 99.697 589.102 98.1364C588.133 96.5758 587.663 94.6136 587.693 92.25V58.7273ZM626.716 102.659C623.064 102.659 619.913 101.939 617.261 100.5C614.625 99.0455 612.595 96.9773 611.17 94.2955C609.761 91.5985 609.057 88.3939 609.057 84.6818C609.057 81.0758 609.769 77.9242 611.193 75.2273C612.617 72.5152 614.625 70.4091 617.216 68.9091C619.807 67.3939 622.86 66.6364 626.375 66.6364C628.86 66.6364 631.133 67.0227 633.193 67.7955C635.254 68.5682 637.034 69.7121 638.534 71.2273C640.034 72.7424 641.201 74.6136 642.034 76.8409C642.867 79.053 643.284 81.5909 643.284 84.4545V87.2273H612.943V80.7727H632.943C632.928 79.5909 632.648 78.5379 632.102 77.6136C631.557 76.6894 630.807 75.9697 629.852 75.4545C628.913 74.9242 627.83 74.6591 626.602 74.6591C625.36 74.6591 624.246 74.9394 623.261 75.5C622.277 76.0455 621.496 76.7955 620.92 77.75C620.345 78.6894 620.042 79.7576 620.011 80.9545V87.5227C620.011 88.947 620.292 90.197 620.852 91.2727C621.413 92.3333 622.208 93.1591 623.239 93.75C624.269 94.3409 625.496 94.6364 626.92 94.6364C627.905 94.6364 628.799 94.5 629.602 94.2273C630.405 93.9545 631.095 93.553 631.67 93.0227C632.246 92.4924 632.678 91.8409 632.966 91.0682L643.17 91.3636C642.746 93.6515 641.814 95.6439 640.375 97.3409C638.951 99.0227 637.08 100.333 634.761 101.273C632.443 102.197 629.761 102.659 626.716 102.659ZM648.96 102V67.0909H659.756V73.4545H660.119C660.756 71.1515 661.794 69.4394 663.233 68.3182C664.672 67.1818 666.347 66.6136 668.256 66.6136C668.771 66.6136 669.301 66.6515 669.847 66.7273C670.392 66.7879 670.9 66.8864 671.369 67.0227V76.6818C670.839 76.5 670.142 76.3561 669.278 76.25C668.43 76.1439 667.672 76.0909 667.006 76.0909C665.688 76.0909 664.498 76.3864 663.438 76.9773C662.392 77.553 661.566 78.3636 660.96 79.4091C660.369 80.4394 660.074 81.6515 660.074 83.0455V102H648.96Z" fill="#00A6FB"/>
<defs>
<filter id="filter0_b_2_15" x="1.73744" y="2.83987" width="101.957" height="149.682" filterUnits="userSpaceOnUse" color-interpolation-filters="sRGB">
<feFlood flood-opacity="0" result="BackgroundImageFix"/>
<feGaussianBlur in="BackgroundImageFix" stdDeviation="2"/>
<feComposite in2="SourceAlpha" operator="in" result="effect1_backgroundBlur_2_15"/>
<feBlend mode="normal" in="SourceGraphic" in2="effect1_backgroundBlur_2_15" result="shape"/>
</filter>
<filter id="filter1_b_2_15" x="64.7881" y="1.83989" width="102.64" height="150.884" filterUnits="userSpaceOnUse" color-interpolation-filters="sRGB">
<feFlood flood-opacity="0" result="BackgroundImageFix"/>
<feGaussianBlur in="BackgroundImageFix" stdDeviation="2"/>
<feComposite in2="SourceAlpha" operator="in" result="effect1_backgroundBlur_2_15"/>
<feBlend mode="normal" in="SourceGraphic" in2="effect1_backgroundBlur_2_15" result="shape"/>
</filter>
<filter id="filter2_b_2_15" x="2.89616" y="113" width="164.642" height="40" filterUnits="userSpaceOnUse" color-interpolation-filters="sRGB">
<feFlood flood-opacity="0" result="BackgroundImageFix"/>
<feGaussianBlur in="BackgroundImageFix" stdDeviation="2"/>
<feComposite in2="SourceAlpha" operator="in" result="effect1_backgroundBlur_2_15"/>
<feBlend mode="normal" in="SourceGraphic" in2="effect1_backgroundBlur_2_15" result="shape"/>
</filter>
<filter id="filter3_b_2_15" x="1.73744" y="84.8399" width="55.3522" height="67.7458" filterUnits="userSpaceOnUse" color-interpolation-filters="sRGB">
<feFlood flood-opacity="0" result="BackgroundImageFix"/>
<feGaussianBlur in="BackgroundImageFix" stdDeviation="2"/>
<feComposite in2="SourceAlpha" operator="in" result="effect1_backgroundBlur_2_15"/>
<feBlend mode="normal" in="SourceGraphic" in2="effect1_backgroundBlur_2_15" result="shape"/>
</filter>
</defs>
</svg>
